<?xml version="1.0" standalone="no"?><!DOCTYPE svg PUBLIC "-//W3C//DTD SVG 1.1//EN" "http://www.w3.org/Graphics/SVG/1.1/DTD/svg11.dtd"><svg t="1670568347197" class="icon" viewBox="0 0 1024 1024" version="1.1" xmlns="http://www.w3.org/2000/svg" p-id="1362" xmlns:xlink="http://www.w3.org/1999/xlink" width="200" height="200"><path d="M522.9568 823.9104h118.6304c103.168 0 186.7776-83.6096 186.7776-186.7776V486.4c0-44.1344-35.7888-79.9232-79.9232-79.9232h-118.6304c-103.168 0-186.7776 83.6096-186.7776 186.7776v150.7328c0 44.1344 35.7888 79.9232 79.9232 79.9232z" fill="#FFBE0A" p-id="1363"></path><path d="M512 945.408c-20.3776 0-40.8064-7.7824-56.32-23.296l-80.8448-80.896H260.4544c-43.9296 0-79.6672-35.7376-79.6672-79.6672V647.168l-80.8448-80.8448a79.17056 79.17056 0 0 1-23.3472-56.32c0-21.2992 8.2944-41.2672 23.3472-56.32l80.8448-80.8448V258.5088c0-43.9296 35.7376-79.6672 79.6672-79.6672h114.3808L455.68 97.9968c15.0528-15.0528 35.0208-23.3472 56.32-23.3472 21.248 0 41.2672 8.2944 56.32 23.3472l80.8448 80.8448h114.3808c43.9296 0 79.6672 35.7376 79.6672 79.6672v114.3808l80.896 80.8448c31.0272 31.0272 31.0272 81.5616 0 112.64l-80.896 80.8448v114.3808c0 43.9296-35.7376 79.6672-79.6672 79.6672h-114.3808L568.32 922.112c-15.5136 15.5648-35.9424 23.296-56.32 23.296zM260.4544 250.5216c-4.4032 0-7.9872 3.584-7.9872 7.9872v129.2288c0 9.5232-3.7888 18.6368-10.496 25.344L150.6304 504.4224c-1.9456 1.9456-2.3552 4.1472-2.3552 5.632s0.4096 3.6864 2.3552 5.632l91.3408 91.3408a35.84512 35.84512 0 0 1 10.496 25.344v129.2288c0 4.4032 3.584 7.9872 7.9872 7.9872H389.632c9.5232 0 18.6368 3.7888 25.344 10.496L506.368 871.424c3.1232 3.1232 8.1408 3.1232 11.264 0l91.3408-91.3408a35.84512 35.84512 0 0 1 25.344-10.496h129.2288c4.4032 0 7.9872-3.584 7.9872-7.9872v-129.2288c0-9.5232 3.7888-18.6368 10.496-25.344l91.392-91.3408c3.1232-3.1232 3.1232-8.1408 0-11.264l-91.392-91.392a35.84512 35.84512 0 0 1-10.496-25.344V258.5088c0-4.4032-3.584-7.9872-7.9872-7.9872h-129.2288c-9.5232 0-18.6368-3.7888-25.344-10.496L517.632 148.6848c-1.9456-1.9456-4.1472-2.3552-5.632-2.3552s-3.6864 0.4096-5.632 2.3552L414.976 240.0256a35.84512 35.84512 0 0 1-25.344 10.496H260.4544z" fill="#34332E" p-id="1364"></path><path d="M481.8432 666.4192c-9.1136 0-17.8688-3.4304-24.5248-9.728l-104.3456-98.048c-14.4384-13.568-15.1552-36.2496-1.5872-50.6368 13.568-14.4384 36.2496-15.1552 50.6368-1.5872l76.2368 71.6288 134.5536-166.0928c12.4416-15.36 35.0208-17.7664 50.432-5.2736 15.36 12.4416 17.7664 35.0208 5.2736 50.432l-158.8224 196.096a35.76832 35.76832 0 0 1-25.3952 13.2096c-0.8704-0.0512-1.6896 0-2.4576 0z" fill="#34332E" p-id="1365"></path></svg>